<?xml version="1.0" encoding="iso-8859-1"?>
<!-- Generator: Adobe Illustrator 19.0.0, SVG Export Plug-In . SVG Version: 6.00 Build 0)  -->
<svg version="1.1" id="Layer_1" xmlns="http://www.w3.org/2000/svg" xmlns:xlink="http://www.w3.org/1999/xlink" x="0px" y="0px"
	 viewBox="0 0 491.52 491.52" style="enable-background:new 0 0 491.52 491.52;" xml:space="preserve">
<g>
	<g>
		<path d="M261.357,228.048c-16.024,0-34.004,7.592-48.388,21.976c-21.425,21.427-27.768,51.732-15.818,70.678
			c1.637-1.081,3.802-2.85,6.591-5.815c9.063-9.639,16.819-20.44,23.048-32.12c1.112-2.087,2.187-4.223,3.264-6.344
			c3.236-6.417,6.572-13.031,11.22-19.408c8.665-11.889,21.175-21.064,35.197-26.386
			C271.78,228.922,266.684,228.048,261.357,228.048z"/>
	</g>
</g>
<g>
	<g>
		<path d="M366.725,0H124.801c-8,0-14.664,5.831-15.952,13.472h273.828C381.389,5.831,374.725,0,366.725,0z"/>
	</g>
</g>
<g>
	<g>
		<path d="M131.585,382.68l12.44,94.608l-0.004-0.008c1.068,8.12,8.048,14.24,16.232,14.24h171.021
			c8.184,0,15.164-6.12,16.228-14.24l12.44-94.6H131.585z"/>
	</g>
</g>
<g>
	<g>
		<path d="M107.477,199.344l21.953,166.952h232.668l21.953-166.952H107.477z M290.145,327.2
			c-17.272,17.272-39.511,26.705-60.108,26.705c-9.26,0-18.184-1.905-26.176-5.865c-5.084-2.528-9.652-5.799-13.584-9.734
			c-0.604-0.601-1.196-1.249-1.788-1.905c-22.632-25.071-16.964-68.095,12.895-97.959c30.589-30.593,75.388-35.576,99.865-11.104
			c0.096,0.095,0.656,0.688,0.748,0.791c4.6,4.856,8.076,10.257,10.54,16.264C323.045,270.024,314.049,303.304,290.145,327.2z"/>
	</g>
</g>
<g>
	<g>
		<path d="M297.377,250.599c-1.144-2.783-2.71-5.291-4.463-7.659c-15.311,2.829-29.464,11.462-38.401,23.724
			c-3.86,5.295-6.892,11.312-9.828,17.129c-1.137,2.247-2.264,4.479-3.436,6.679c-6.916,12.96-15.521,24.952-25.572,35.64
			c-2.24,2.385-4.395,4.388-6.496,6.073c0.66,0.382,1.269,0.833,1.96,1.176c19.54,9.671,47.276,2.384,67.42-17.745
			C297.549,296.632,305.285,269.896,297.377,250.599z"/>
	</g>
</g>
<g>
	<g>
		<path d="M413.173,29.432l-20.101,0.026c-0.649,0.165-1.274,0.398-1.975,0.398H100.43c-0.051,0-0.092-0.028-0.141-0.028
			l-22.483,0.028l-7.228,27.88h11.097h328.179h11.088L413.173,29.432z"/>
	</g>
</g>
<g>
	<g>
		<polygon points="91.013,74.12 105.321,182.96 386.205,182.96 400.513,74.12 		"/>
	</g>
</g>
<g>
</g>
<g>
</g>
<g>
</g>
<g>
</g>
<g>
</g>
<g>
</g>
<g>
</g>
<g>
</g>
<g>
</g>
<g>
</g>
<g>
</g>
<g>
</g>
<g>
</g>
<g>
</g>
<g>
</g>
</svg>
